<?xml version="1.0" encoding="iso-8859-1"?>
<!-- Generator: Adobe Illustrator 19.0.0, SVG Export Plug-In . SVG Version: 6.00 Build 0)  -->
<svg version="1.1" id="Layer_1" xmlns="http://www.w3.org/2000/svg" xmlns:xlink="http://www.w3.org/1999/xlink" x="0px" y="0px"
	 viewBox="0 0 512 512" style="enable-background:new 0 0 512 512;" xml:space="preserve">
<path style="fill:#C9C4E1;" d="M326.172,92.414V51.825c0-20.789-16.854-37.643-37.643-37.643h-65.061
	c-20.789,0-37.643,16.854-37.643,37.643v40.589H326.172z"/>
<g>
	<path style="fill:#331E68;" d="M326.173,106.595H185.826c-7.831,0-14.181-6.35-14.181-14.181V51.825
		C171.645,23.249,194.894,0,223.47,0h65.059c28.575,0,51.825,23.249,51.825,51.825v40.589
		C340.354,100.245,334.004,106.595,326.173,106.595z M200.006,78.233h111.986V51.825c0-12.937-10.526-23.463-23.463-23.463H223.47
		c-12.937,0-23.463,10.526-23.463,23.463L200.006,78.233L200.006,78.233z"/>
	<path style="fill:#331E68;" d="M298.541,416.652h-85.084c-5.416,0-10.36-3.086-12.738-7.951l-27.288-55.808
		c-0.661-1.351-1.102-2.801-1.309-4.29c-0.316-2.292-0.476-4.57-0.476-6.77V51.825c0-28.575,23.248-51.823,51.823-51.823h65.062
		c28.575,0,51.823,23.248,51.823,51.823v68.951c0,7.831-6.35,14.181-14.181,14.181s-14.181-6.35-14.181-14.181V51.825
		c0-12.937-10.525-23.462-23.462-23.462h-65.062c-12.937,0-23.462,10.525-23.462,23.462v290.007c0,0.294,0.007,0.59,0.021,0.892
		l22.282,45.568h67.381l22.281-45.568c0.016-0.302,0.023-0.598,0.023-0.892V191.679c0-7.831,6.35-14.181,14.181-14.181
		s14.181,6.35,14.181,14.181v150.153c0,2.187-0.159,4.461-0.475,6.759c-0.206,1.495-0.647,2.947-1.31,4.302l-27.288,55.808
		C308.901,413.568,303.958,416.652,298.541,416.652z"/>
</g>
<rect x="213.461" y="398.548" style="fill:#C9C4E1;" width="85.084" height="42.542"/>
<path style="fill:#331E68;" d="M298.541,455.277h-85.084c-7.831,0-14.181-6.35-14.181-14.181v-42.542
	c0-7.831,6.35-14.181,14.181-14.181h85.084c7.831,0,14.181,6.35,14.181,14.181v42.542
	C312.721,448.927,306.373,455.277,298.541,455.277z M227.637,426.916h56.723v-14.181h-56.723V426.916z"/>
<polygon style="fill:#C9C4E1;" points="284.36,469.457 227.637,497.818 227.637,441.095 284.36,441.095 "/>
<path style="fill:#331E68;" d="M227.637,512c-2.592,0-5.177-0.71-7.455-2.117c-4.18-2.584-6.726-7.148-6.726-12.063v-56.723
	c0-7.831,6.35-14.181,14.181-14.181h56.723c7.831,0,14.181,6.35,14.181,14.181v28.361c0,5.372-3.035,10.281-7.839,12.683
	l-56.723,28.361C231.978,511.502,229.805,512,227.637,512z M241.818,455.277v19.596l28.361-14.181v-5.416H241.818z"/>
<circle style="fill:#C9C4E1;" cx="256.003" cy="242.56" r="28.361"/>
<path style="fill:#331E68;" d="M255.999,285.109c-23.458,0-42.542-19.084-42.542-42.542s19.084-42.542,42.542-42.542
	c23.458,0,42.542,19.084,42.542,42.542S279.456,285.109,255.999,285.109z M255.999,228.387c-7.819,0-14.181,6.361-14.181,14.181
	s6.361,14.181,14.181,14.181s14.181-6.361,14.181-14.181S263.818,228.387,255.999,228.387z"/>
<g>
</g>
<g>
</g>
<g>
</g>
<g>
</g>
<g>
</g>
<g>
</g>
<g>
</g>
<g>
</g>
<g>
</g>
<g>
</g>
<g>
</g>
<g>
</g>
<g>
</g>
<g>
</g>
<g>
</g>
</svg>
